<?xml version="1.0" standalone="no"?>
<!DOCTYPE svg PUBLIC "-//W3C//DTD SVG 20010904//EN"
 "http://www.w3.org/TR/2001/REC-SVG-20010904/DTD/svg10.dtd">
<svg version="1.0" xmlns="http://www.w3.org/2000/svg"
 width="512.000000pt" height="512.000000pt" viewBox="0 0 512.000000 512.000000"
 preserveAspectRatio="xMidYMid meet">
<metadata>
Created by potrace 1.14, written by Peter Selinger 2001-2017
</metadata>
<g transform="translate(0.000000,512.000000) scale(0.100000,-0.100000)"
fill="#000000" stroke="none">
<path d="M1942 5105 c-155 -29 -293 -84 -413 -166 -265 -180 -442 -479 -465
-789 l-7 -86 -66 -10 c-174 -28 -318 -162 -362 -336 -16 -66 -7 -191 20 -258
60 -157 221 -274 382 -279 l27 -1 4 -147 c4 -122 9 -158 28 -208 37 -97 87
-166 180 -246 33 -29 154 -84 205 -94 53 -10 90 -13 210 -15 85 -2 94 -3 60
-11 -136 -30 -264 -118 -335 -228 l-16 -24 -249 -2 c-217 -1 -256 -4 -295 -20
-113 -46 -189 -130 -219 -242 -15 -54 -16 -199 -2 -250 6 -22 26 -60 43 -84
l33 -44 0 -363 1 -363 -41 -31 c-164 -126 -180 -382 -32 -528 73 -72 168 -109
267 -104 219 12 373 216 325 434 -16 75 -76 166 -132 201 l-33 21 0 334 0 334
148 0 c134 0 148 -2 149 -17 3 -32 54 -177 90 -253 75 -158 213 -328 353 -436
83 -64 107 -79 205 -131 l80 -42 17 -88 c41 -218 48 -242 80 -305 56 -105 169
-190 288 -217 24 -5 79 -8 121 -7 105 5 205 52 278 132 80 88 102 140 136 326
12 66 33 159 36 162 2 2 33 18 69 36 70 35 192 113 225 143 11 10 37 33 58 50
90 75 219 250 282 382 40 83 85 213 85 243 0 22 3 22 150 22 l150 0 0 -333 0
-333 -30 -18 c-17 -9 -48 -41 -70 -70 -214 -283 54 -657 393 -550 58 18 64 22
139 97 47 47 61 70 78 123 11 37 20 87 20 113 0 101 -56 216 -136 276 l-40 31
1 364 1 365 37 54 c20 29 37 58 38 65 0 6 3 20 5 31 7 29 6 165 -1 205 -23
131 -137 248 -272 278 -21 5 -142 8 -268 8 l-230 -1 -26 40 c-57 90 -173 171
-294 206 l-60 18 105 1 c161 2 209 10 296 50 128 58 218 152 274 287 32 74 34
86 38 224 l4 146 52 6 c154 16 301 130 357 277 30 78 36 200 14 276 -49 169
-184 290 -357 318 -66 10 -68 11 -68 41 -1 119 -42 289 -99 411 -146 311 -417
522 -771 600 -19 4 -291 8 -605 10 -443 2 -586 -1 -643 -11z"/>
</g>
</svg>
